<svg xmlns="http://www.w3.org/2000/svg" viewBox="0 0 1472 832">
<path d="M 584,562 L 588,562 Z" fill="black"/><path d="M 357,543 L 356,544 L 354,544 L 353,545 L 352,545 L 351,546 L 350,546 L 348,548 L 348,549 L 347,550 L 347,551 L 348,552 L 348,553 L 351,556 L 353,556 L 354,557 L 355,557 L 356,558 L 357,558 L 358,559 L 387,559 L 388,558 L 403,558 L 404,557 L 479,557 L 480,558 L 507,558 L 508,559 L 511,559 L 512,558 L 514,558 L 515,559 L 543,559 L 544,560 L 559,560 L 560,561 L 567,561 L 568,560 L 575,560 L 566,560 L 565,559 L 558,559 L 557,558 L 552,558 L 551,557 L 551,556 L 544,556 L 543,557 L 542,556 L 541,556 L 539,554 L 530,554 L 529,553 L 528,553 L 527,554 L 520,554 L 519,553 L 517,553 L 516,552 L 508,552 L 507,551 L 497,551 L 496,550 L 486,550 L 485,549 L 476,549 L 475,548 L 466,548 L 465,547 L 456,547 L 455,546 L 440,546 L 439,545 L 420,545 L 419,544 L 416,544 L 415,545 L 412,545 L 411,544 L 408,544 L 407,543 L 400,543 L 399,544 L 378,544 L 377,543 L 376,543 L 375,544 L 373,544 L 372,543 L 368,543 L 367,544 L 364,544 L 363,543 Z" fill="black"/><path d="M 779,526 Z" fill="black"/><path d="M 696,511 Z" fill="black"/><path d="M 632,510 Z" fill="black"/><path d="M 574,510 Z" fill="black"/><path d="M 700,509 Z" fill="black"/><path d="M 1048,489 Z" fill="black"/><path d="M 736,481 L 736,482 Z" fill="black"/><path d="M 864,474 Z" fill="black"/><path d="M 286,405 Z" fill="black"/><path d="M 827,389 L 828,389 Z" fill="black"/><path d="M 830,388 Z" fill="black"/><path d="M 335,344 Z" fill="black"/><path d="M 347,343 Z" fill="black"/><path d="M 351,342 Z" fill="black"/><path d="M 339,342 L 340,342 Z" fill="black"/><path d="M 343,340 Z" fill="black"/><path d="M 403,324 L 402,325 L 398,325 L 397,326 L 395,326 L 394,327 L 392,327 L 391,328 L 390,328 L 389,329 L 387,329 L 386,330 L 385,330 L 381,334 L 381,337 L 380,338 L 380,351 L 379,352 L 379,359 L 378,360 L 378,367 L 377,368 L 377,375 L 376,376 L 376,383 L 375,384 L 375,389 L 374,390 L 374,396 L 373,397 L 373,403 L 372,404 L 372,410 L 371,411 L 371,418 L 370,419 L 370,427 L 369,428 L 369,436 L 368,437 L 368,444 L 367,445 L 367,453 L 366,454 L 366,462 L 365,463 L 365,470 L 364,471 L 364,477 L 363,478 L 363,484 L 362,485 L 362,489 L 361,490 L 361,495 L 360,496 L 360,498 L 359,499 L 359,501 L 358,502 L 358,504 L 357,505 L 357,510 L 358,511 L 358,512 L 359,513 L 362,513 L 363,514 L 375,514 L 376,513 L 389,513 L 390,514 L 389,515 L 379,515 L 379,516 L 378,517 L 376,517 L 375,516 L 376,517 L 378,517 L 379,518 L 378,519 L 376,519 L 376,520 L 375,521 L 376,521 L 377,522 L 376,523 L 375,523 L 374,524 L 345,524 L 344,525 L 338,525 L 337,526 L 336,526 L 333,529 L 333,531 L 332,532 L 332,535 L 333,536 L 333,538 L 335,540 L 337,540 L 338,541 L 346,541 L 347,540 L 364,540 L 365,539 L 439,539 L 440,540 L 468,540 L 469,541 L 491,541 L 492,542 L 511,542 L 512,543 L 527,543 L 528,544 L 543,544 L 544,545 L 557,545 L 558,546 L 570,546 L 571,547 L 584,547 L 585,548 L 596,548 L 597,549 L 608,549 L 609,550 L 619,550 L 620,551 L 631,551 L 632,552 L 641,552 L 642,553 L 652,553 L 653,554 L 662,554 L 663,555 L 672,555 L 673,556 L 681,556 L 682,557 L 689,557 L 690,558 L 699,558 L 700,559 L 707,559 L 708,560 L 714,560 L 715,561 L 722,561 L 723,560 L 723,556 L 722,555 L 720,555 L 719,554 L 715,554 L 714,553 L 709,553 L 708,552 L 703,552 L 702,551 L 697,551 L 696,550 L 690,550 L 689,549 L 684,549 L 683,548 L 677,548 L 676,547 L 670,547 L 669,546 L 664,546 L 663,545 L 658,545 L 657,544 L 650,544 L 649,543 L 643,543 L 642,542 L 635,542 L 634,541 L 628,541 L 627,540 L 620,540 L 619,539 L 613,539 L 612,538 L 604,538 L 603,537 L 594,537 L 593,536 L 582,536 L 581,535 L 572,535 L 571,534 L 562,534 L 561,533 L 550,533 L 549,532 L 539,532 L 538,531 L 525,531 L 524,530 L 512,530 L 511,529 L 497,529 L 496,528 L 483,528 L 482,527 L 468,527 L 467,526 L 459,526 L 458,525 L 459,524 L 463,524 L 464,523 L 463,522 L 465,520 L 465,515 L 466,514 L 466,506 L 467,505 L 467,504 L 466,503 L 466,502 L 467,501 L 467,493 L 468,492 L 468,484 L 469,483 L 469,475 L 470,474 L 470,472 L 471,471 L 471,464 L 472,463 L 472,460 L 473,459 L 473,456 L 474,455 L 474,452 L 475,451 L 475,450 L 476,449 L 476,446 L 477,445 L 477,441 L 478,440 L 478,438 L 479,437 L 479,436 L 480,435 L 480,433 L 481,432 L 481,430 L 482,429 L 482,428 L 484,426 L 484,424 L 485,423 L 485,422 L 486,421 L 486,420 L 488,418 L 488,416 L 489,415 L 489,414 L 491,412 L 491,411 L 493,409 L 493,408 L 494,407 L 494,406 L 496,404 L 497,404 L 498,403 L 499,403 L 501,401 L 501,400 L 502,399 L 503,400 L 503,417 L 502,418 L 502,426 L 501,427 L 501,436 L 500,437 L 500,445 L 499,446 L 499,454 L 498,455 L 498,462 L 497,463 L 497,471 L 496,472 L 496,479 L 495,480 L 495,487 L 494,488 L 494,494 L 493,495 L 493,506 L 496,509 L 498,509 L 499,510 L 503,510 L 504,511 L 503,512 L 501,512 L 510,521 L 511,521 L 514,524 L 515,524 L 516,525 L 519,525 L 520,526 L 527,526 L 528,525 L 531,525 L 533,523 L 533,522 L 534,521 L 535,521 L 535,520 L 537,518 L 537,516 L 538,515 L 538,513 L 539,512 L 539,507 L 540,506 L 540,504 L 539,503 L 540,502 L 540,490 L 541,489 L 541,476 L 542,475 L 542,470 L 543,469 L 543,464 L 544,463 L 544,459 L 545,458 L 545,454 L 546,453 L 546,449 L 547,448 L 547,446 L 548,445 L 548,443 L 549,442 L 549,438 L 550,437 L 550,436 L 551,435 L 551,432 L 552,431 L 552,430 L 553,429 L 553,427 L 554,426 L 554,424 L 556,422 L 556,420 L 557,419 L 557,417 L 558,416 L 558,414 L 561,411 L 561,410 L 562,409 L 562,408 L 567,403 L 568,403 L 568,402 L 570,400 L 570,399 L 571,398 L 572,399 L 572,408 L 571,409 L 571,418 L 570,419 L 570,425 L 569,426 L 569,433 L 568,434 L 568,439 L 567,440 L 567,447 L 566,448 L 566,456 L 565,457 L 565,466 L 564,467 L 564,489 L 565,490 L 565,495 L 566,496 L 566,497 L 567,498 L 567,500 L 568,501 L 568,502 L 574,508 L 575,508 L 577,510 L 576,511 L 576,512 L 578,514 L 578,515 L 580,517 L 581,517 L 582,518 L 582,519 L 583,519 L 585,521 L 586,521 L 587,522 L 588,522 L 590,524 L 591,524 L 592,525 L 594,525 L 595,526 L 597,526 L 598,527 L 599,527 L 600,526 L 603,526 L 604,527 L 605,526 L 607,526 L 608,525 L 611,525 L 612,524 L 613,524 L 614,523 L 615,523 L 616,522 L 617,522 L 620,519 L 621,519 L 621,518 L 623,516 L 624,516 L 624,515 L 626,513 L 626,512 L 631,507 L 632,507 L 632,506 L 634,504 L 635,504 L 636,505 L 635,506 L 637,508 L 636,509 L 637,509 L 638,510 L 638,511 L 640,513 L 641,513 L 645,517 L 646,517 L 648,519 L 649,519 L 650,520 L 650,521 L 652,521 L 653,522 L 654,522 L 656,524 L 660,524 L 661,525 L 672,525 L 673,524 L 675,524 L 677,522 L 679,522 L 680,521 L 682,521 L 687,516 L 688,516 L 690,514 L 690,513 L 692,511 L 693,511 L 693,510 L 695,508 L 696,508 L 695,507 L 696,506 L 697,506 L 698,507 L 699,507 L 700,506 L 703,509 L 702,510 L 702,511 L 708,517 L 708,518 L 711,521 L 712,521 L 715,524 L 716,524 L 717,525 L 718,525 L 720,527 L 723,527 L 724,528 L 726,528 L 727,529 L 735,529 L 736,528 L 739,528 L 740,527 L 741,527 L 742,526 L 743,526 L 744,525 L 745,525 L 749,521 L 751,521 L 751,520 L 754,517 L 754,516 L 755,515 L 755,514 L 757,512 L 757,511 L 758,510 L 762,510 L 763,511 L 764,511 L 765,512 L 765,513 L 766,514 L 767,514 L 768,515 L 768,516 L 769,516 L 770,517 L 770,518 L 771,519 L 772,519 L 774,521 L 775,521 L 777,523 L 777,524 L 778,524 L 779,523 L 780,523 L 781,524 L 782,524 L 783,525 L 780,528 L 779,528 L 777,530 L 776,530 L 772,534 L 771,534 L 767,538 L 766,538 L 760,544 L 759,544 L 746,557 L 746,558 L 742,562 L 742,563 L 739,566 L 739,567 L 738,568 L 738,569 L 737,570 L 737,571 L 736,572 L 736,573 L 735,574 L 735,575 L 734,576 L 734,578 L 733,579 L 733,582 L 732,583 L 732,598 L 733,599 L 733,601 L 734,602 L 734,604 L 735,605 L 735,606 L 736,607 L 736,608 L 738,610 L 738,611 L 742,615 L 742,616 L 745,619 L 744,620 L 746,622 L 746,624 L 749,627 L 749,628 L 751,630 L 751,631 L 756,636 L 757,636 L 760,639 L 761,639 L 763,641 L 765,641 L 766,642 L 767,642 L 768,643 L 769,643 L 770,644 L 771,644 L 772,645 L 775,645 L 776,646 L 781,646 L 782,647 L 783,647 L 784,646 L 795,646 L 796,645 L 799,645 L 800,644 L 803,644 L 804,643 L 805,643 L 806,642 L 807,642 L 808,641 L 811,641 L 813,639 L 815,639 L 817,637 L 819,637 L 823,633 L 825,633 L 828,630 L 829,630 L 830,629 L 831,629 L 831,628 L 833,626 L 834,626 L 834,625 L 836,623 L 837,623 L 837,622 L 838,621 L 838,620 L 840,618 L 841,618 L 841,616 L 842,615 L 842,614 L 845,611 L 845,608 L 846,607 L 848,607 L 848,604 L 849,603 L 849,600 L 850,599 L 850,598 L 851,597 L 851,595 L 852,594 L 852,592 L 853,591 L 854,591 L 854,588 L 855,587 L 855,584 L 856,583 L 856,580 L 857,579 L 857,574 L 858,573 L 858,570 L 859,569 L 859,565 L 860,564 L 860,563 L 861,562 L 861,560 L 860,559 L 860,558 L 861,557 L 861,554 L 862,553 L 862,548 L 863,547 L 863,536 L 864,535 L 864,532 L 865,531 L 865,525 L 866,524 L 866,520 L 867,519 L 868,519 L 868,518 L 869,517 L 869,516 L 870,515 L 870,513 L 871,512 L 871,511 L 872,510 L 873,511 L 873,510 L 874,509 L 876,511 L 876,512 L 877,513 L 877,514 L 881,518 L 881,519 L 882,519 L 883,520 L 883,521 L 887,525 L 888,525 L 890,527 L 891,527 L 893,529 L 894,529 L 895,530 L 897,530 L 898,531 L 899,531 L 900,532 L 901,532 L 902,533 L 907,533 L 908,532 L 912,532 L 913,531 L 916,531 L 917,530 L 919,530 L 922,527 L 923,527 L 923,526 L 928,521 L 930,521 L 931,520 L 932,521 L 933,521 L 934,522 L 935,522 L 939,526 L 940,526 L 943,529 L 944,529 L 945,530 L 947,530 L 949,532 L 962,532 L 963,531 L 965,531 L 966,530 L 967,530 L 970,527 L 971,527 L 972,526 L 972,525 L 973,524 L 973,523 L 975,521 L 975,518 L 976,517 L 976,516 L 977,515 L 977,496 L 978,495 L 978,487 L 979,486 L 979,480 L 980,479 L 980,476 L 981,475 L 981,468 L 982,467 L 982,464 L 983,463 L 983,460 L 984,459 L 984,456 L 985,455 L 985,450 L 986,449 L 986,447 L 987,446 L 987,444 L 988,443 L 988,442 L 989,441 L 989,437 L 991,435 L 991,433 L 992,432 L 992,431 L 993,430 L 993,428 L 995,426 L 995,424 L 998,421 L 998,419 L 1000,417 L 1000,416 L 1004,412 L 1004,411 L 1006,409 L 1007,409 L 1008,408 L 1008,407 L 1009,406 L 1010,407 L 1010,405 L 1012,403 L 1013,404 L 1013,418 L 1012,419 L 1012,427 L 1011,428 L 1011,435 L 1010,436 L 1010,442 L 1009,443 L 1009,449 L 1008,450 L 1008,458 L 1007,459 L 1007,468 L 1006,469 L 1006,495 L 1007,496 L 1007,498 L 1008,499 L 1008,500 L 1009,501 L 1009,502 L 1016,509 L 1015,510 L 1017,512 L 1017,513 L 1018,514 L 1018,515 L 1019,516 L 1019,517 L 1022,520 L 1022,521 L 1030,529 L 1031,529 L 1032,530 L 1033,530 L 1036,533 L 1039,533 L 1040,534 L 1043,534 L 1044,535 L 1059,535 L 1061,533 L 1063,533 L 1064,532 L 1066,532 L 1069,529 L 1069,528 L 1070,527 L 1073,527 L 1075,525 L 1075,524 L 1077,522 L 1077,521 L 1081,517 L 1081,516 L 1083,514 L 1087,514 L 1088,515 L 1088,516 L 1089,516 L 1090,517 L 1090,518 L 1091,519 L 1092,519 L 1098,525 L 1099,525 L 1101,527 L 1103,527 L 1104,528 L 1104,529 L 1105,529 L 1106,530 L 1107,530 L 1110,533 L 1111,533 L 1112,534 L 1115,534 L 1116,535 L 1119,535 L 1121,537 L 1124,537 L 1125,538 L 1127,538 L 1128,537 L 1140,537 L 1142,535 L 1146,535 L 1147,534 L 1149,534 L 1150,533 L 1151,533 L 1152,534 L 1153,534 L 1154,533 L 1155,533 L 1156,532 L 1157,532 L 1157,531 L 1158,530 L 1159,530 L 1160,531 L 1161,531 L 1165,527 L 1167,527 L 1170,524 L 1171,524 L 1173,522 L 1174,522 L 1175,521 L 1175,520 L 1176,519 L 1179,519 L 1179,518 L 1182,515 L 1183,515 L 1184,514 L 1184,513 L 1186,511 L 1187,511 L 1187,509 L 1190,506 L 1191,506 L 1191,502 L 1192,501 L 1193,501 L 1196,498 L 1196,496 L 1197,495 L 1198,495 L 1198,494 L 1199,493 L 1199,492 L 1202,489 L 1202,486 L 1203,485 L 1203,484 L 1204,483 L 1204,481 L 1206,479 L 1206,476 L 1207,475 L 1207,474 L 1208,473 L 1208,472 L 1209,471 L 1209,464 L 1210,463 L 1209,462 L 1209,461 L 1207,459 L 1207,455 L 1206,454 L 1206,453 L 1205,452 L 1205,451 L 1202,448 L 1202,447 L 1199,444 L 1198,444 L 1195,441 L 1194,441 L 1193,440 L 1191,440 L 1190,439 L 1191,438 L 1190,439 L 1188,437 L 1188,435 L 1183,430 L 1177,430 L 1176,431 L 1175,431 L 1173,433 L 1172,433 L 1170,435 L 1169,434 L 1169,433 L 1167,431 L 1168,430 L 1169,430 L 1170,429 L 1169,428 L 1169,427 L 1173,423 L 1173,421 L 1174,420 L 1174,419 L 1175,418 L 1175,404 L 1174,403 L 1174,400 L 1173,399 L 1173,398 L 1172,397 L 1172,396 L 1171,395 L 1171,394 L 1163,386 L 1162,386 L 1158,382 L 1157,383 L 1156,382 L 1156,381 L 1154,379 L 1154,378 L 1152,376 L 1152,375 L 1147,370 L 1146,370 L 1145,369 L 1144,369 L 1143,368 L 1142,368 L 1141,367 L 1139,367 L 1138,366 L 1133,366 L 1132,365 L 1124,365 L 1123,366 L 1119,366 L 1118,367 L 1116,367 L 1115,368 L 1112,368 L 1111,369 L 1110,369 L 1109,370 L 1108,370 L 1107,371 L 1106,371 L 1105,372 L 1104,372 L 1103,373 L 1102,373 L 1100,375 L 1099,375 L 1096,378 L 1095,378 L 1082,391 L 1082,392 L 1079,395 L 1079,396 L 1077,398 L 1077,399 L 1075,401 L 1075,402 L 1074,403 L 1074,404 L 1072,406 L 1072,408 L 1071,409 L 1071,410 L 1070,411 L 1070,412 L 1069,413 L 1069,415 L 1068,416 L 1068,417 L 1067,418 L 1067,420 L 1066,421 L 1066,424 L 1065,425 L 1065,428 L 1064,429 L 1064,434 L 1063,435 L 1063,447 L 1062,448 L 1062,453 L 1063,454 L 1063,463 L 1064,464 L 1064,468 L 1065,469 L 1065,472 L 1066,473 L 1066,475 L 1067,476 L 1067,477 L 1066,478 L 1066,479 L 1057,488 L 1056,488 L 1055,489 L 1054,489 L 1052,491 L 1051,491 L 1050,492 L 1046,492 L 1045,491 L 1045,490 L 1046,489 L 1046,488 L 1047,487 L 1047,484 L 1048,483 L 1048,477 L 1049,476 L 1049,468 L 1050,467 L 1050,460 L 1051,459 L 1051,452 L 1052,451 L 1052,445 L 1053,444 L 1053,437 L 1054,436 L 1054,434 L 1055,433 L 1055,427 L 1056,426 L 1056,423 L 1057,422 L 1057,412 L 1058,411 L 1058,399 L 1057,398 L 1057,394 L 1056,393 L 1056,392 L 1055,391 L 1055,389 L 1051,385 L 1051,384 L 1049,382 L 1048,382 L 1046,380 L 1046,379 L 1045,379 L 1042,376 L 1041,376 L 1040,375 L 1040,374 L 1039,373 L 1039,372 L 1038,371 L 1038,370 L 1037,369 L 1037,368 L 1033,364 L 1032,364 L 1031,363 L 1030,363 L 1029,362 L 1028,362 L 1027,361 L 1024,361 L 1023,360 L 1016,360 L 1015,361 L 1010,361 L 1009,362 L 1006,362 L 1005,363 L 1004,363 L 1003,364 L 1001,364 L 999,366 L 998,366 L 997,367 L 996,367 L 994,369 L 993,369 L 990,372 L 989,372 L 976,385 L 975,384 L 975,383 L 977,381 L 976,382 L 975,381 L 975,380 L 976,379 L 976,378 L 977,377 L 974,374 L 974,372 L 973,371 L 973,370 L 968,365 L 968,364 L 967,364 L 966,363 L 964,363 L 963,362 L 959,362 L 958,361 L 955,361 L 954,362 L 950,362 L 949,363 L 948,363 L 946,365 L 945,365 L 944,366 L 944,367 L 942,369 L 942,371 L 941,372 L 941,375 L 940,376 L 940,391 L 939,392 L 939,402 L 938,403 L 938,411 L 937,412 L 937,420 L 936,421 L 936,428 L 935,429 L 935,437 L 934,438 L 934,445 L 933,446 L 933,454 L 932,455 L 932,462 L 931,463 L 931,469 L 930,470 L 930,476 L 929,477 L 929,478 L 928,479 L 928,480 L 927,481 L 927,482 L 925,484 L 924,484 L 920,488 L 919,488 L 918,489 L 917,489 L 915,491 L 913,491 L 912,490 L 913,489 L 914,489 L 913,489 L 912,488 L 913,487 L 914,487 L 914,484 L 915,483 L 915,480 L 916,479 L 916,474 L 917,473 L 917,467 L 918,466 L 918,461 L 919,460 L 919,454 L 920,453 L 920,448 L 921,447 L 921,437 L 922,436 L 922,429 L 923,428 L 923,422 L 924,421 L 924,416 L 925,415 L 925,411 L 926,410 L 926,405 L 927,404 L 927,398 L 928,397 L 928,392 L 927,391 L 928,390 L 928,387 L 927,386 L 927,383 L 925,381 L 925,378 L 924,377 L 924,376 L 922,376 L 920,374 L 920,375 L 919,376 L 918,375 L 918,374 L 917,373 L 917,367 L 916,366 L 916,365 L 914,363 L 913,363 L 912,362 L 901,362 L 900,363 L 898,363 L 897,364 L 896,364 L 895,365 L 894,365 L 893,366 L 892,366 L 890,368 L 889,368 L 885,372 L 885,373 L 884,374 L 884,378 L 883,379 L 883,387 L 882,388 L 882,396 L 881,397 L 881,405 L 880,406 L 880,416 L 879,417 L 879,427 L 878,428 L 878,439 L 877,440 L 877,450 L 876,451 L 876,459 L 875,460 L 875,466 L 874,467 L 874,471 L 873,472 L 873,475 L 872,476 L 872,477 L 870,479 L 870,480 L 864,486 L 863,486 L 861,488 L 860,488 L 858,486 L 859,485 L 860,485 L 859,484 L 859,483 L 860,482 L 861,482 L 860,481 L 861,480 L 861,476 L 862,475 L 862,472 L 863,471 L 863,465 L 864,464 L 864,459 L 865,458 L 865,448 L 866,447 L 866,440 L 867,439 L 867,432 L 868,431 L 868,424 L 869,423 L 869,416 L 870,415 L 870,411 L 871,410 L 871,392 L 870,391 L 870,390 L 871,389 L 870,388 L 870,386 L 869,385 L 869,382 L 868,381 L 868,380 L 866,378 L 866,377 L 862,373 L 862,372 L 861,373 L 860,372 L 860,369 L 856,365 L 854,365 L 853,364 L 847,364 L 846,365 L 845,365 L 842,368 L 841,368 L 841,369 L 839,371 L 839,373 L 838,374 L 838,376 L 837,377 L 837,378 L 836,379 L 836,381 L 835,382 L 835,384 L 834,385 L 834,387 L 833,388 L 833,391 L 832,392 L 831,392 L 830,391 L 831,390 L 830,391 L 828,391 L 827,392 L 825,390 L 825,391 L 824,392 L 822,392 L 821,391 L 822,390 L 823,390 L 821,390 L 820,389 L 821,388 L 824,388 L 825,387 L 828,387 L 830,385 L 830,384 L 831,383 L 831,382 L 832,381 L 832,379 L 833,378 L 833,373 L 832,372 L 830,372 L 829,371 L 825,371 L 824,370 L 821,370 L 820,371 L 811,371 L 810,372 L 806,372 L 805,373 L 803,373 L 802,374 L 800,374 L 799,375 L 797,375 L 796,376 L 795,376 L 794,377 L 792,377 L 791,378 L 790,378 L 789,379 L 788,379 L 786,381 L 785,381 L 784,382 L 783,382 L 781,384 L 780,384 L 778,386 L 777,386 L 764,399 L 764,400 L 761,403 L 761,404 L 759,406 L 759,407 L 757,409 L 757,410 L 756,411 L 756,412 L 754,414 L 754,416 L 753,417 L 753,418 L 752,419 L 752,420 L 751,421 L 751,422 L 750,423 L 750,425 L 749,426 L 749,428 L 748,429 L 748,431 L 747,432 L 747,434 L 746,435 L 746,439 L 745,440 L 745,444 L 744,445 L 744,471 L 745,472 L 745,476 L 746,477 L 746,480 L 747,481 L 747,482 L 746,483 L 746,484 L 741,489 L 740,489 L 738,491 L 736,491 L 735,492 L 733,492 L 732,493 L 730,493 L 729,492 L 731,490 L 733,490 L 732,490 L 731,489 L 732,488 L 733,488 L 733,487 L 734,486 L 734,480 L 735,479 L 735,475 L 736,474 L 736,472 L 735,471 L 737,469 L 737,455 L 738,454 L 738,444 L 739,443 L 739,438 L 740,437 L 740,432 L 741,431 L 741,426 L 742,425 L 742,421 L 743,420 L 743,414 L 744,413 L 744,411 L 745,410 L 745,402 L 746,401 L 746,387 L 745,386 L 745,382 L 743,380 L 743,379 L 741,377 L 741,376 L 735,370 L 735,368 L 734,367 L 734,366 L 731,363 L 730,363 L 729,362 L 718,362 L 717,363 L 716,363 L 712,367 L 712,368 L 711,369 L 711,370 L 710,371 L 710,373 L 709,374 L 709,376 L 708,377 L 708,379 L 707,380 L 707,382 L 706,383 L 706,386 L 705,387 L 705,390 L 704,391 L 702,389 L 698,389 L 697,388 L 696,388 L 697,388 L 698,389 L 697,390 L 694,390 L 695,391 L 694,392 L 692,392 L 691,391 L 689,391 L 688,392 L 687,391 L 686,392 L 684,392 L 683,393 L 682,393 L 681,394 L 680,394 L 679,393 L 678,393 L 677,392 L 678,391 L 679,391 L 680,390 L 681,390 L 682,389 L 684,389 L 685,390 L 684,389 L 685,388 L 686,388 L 687,387 L 690,387 L 691,386 L 694,386 L 695,385 L 699,385 L 700,384 L 701,384 L 703,382 L 703,381 L 704,380 L 704,378 L 705,377 L 705,371 L 703,369 L 701,369 L 700,368 L 681,368 L 680,369 L 677,369 L 676,370 L 673,370 L 672,371 L 670,371 L 669,372 L 668,372 L 667,373 L 665,373 L 663,375 L 661,375 L 660,376 L 659,376 L 658,377 L 657,377 L 655,379 L 654,379 L 652,381 L 651,381 L 648,384 L 647,384 L 637,394 L 637,395 L 633,399 L 633,400 L 632,401 L 632,402 L 630,404 L 630,405 L 629,406 L 629,407 L 628,408 L 628,409 L 627,410 L 627,411 L 626,412 L 626,413 L 625,414 L 625,416 L 624,417 L 624,418 L 623,419 L 623,421 L 622,422 L 622,424 L 621,425 L 621,427 L 620,428 L 620,430 L 619,431 L 619,434 L 618,435 L 618,440 L 617,441 L 617,448 L 616,449 L 616,466 L 617,467 L 617,472 L 618,473 L 618,477 L 619,478 L 619,479 L 620,480 L 619,481 L 619,482 L 617,484 L 617,485 L 614,488 L 613,488 L 611,490 L 610,490 L 609,491 L 608,491 L 607,492 L 605,492 L 604,493 L 599,493 L 598,492 L 600,490 L 601,490 L 601,486 L 602,485 L 602,483 L 603,482 L 603,477 L 604,476 L 604,471 L 605,470 L 605,460 L 606,459 L 606,456 L 607,455 L 607,450 L 608,449 L 608,443 L 609,442 L 609,435 L 610,434 L 610,426 L 611,425 L 611,419 L 612,418 L 612,397 L 611,396 L 611,391 L 610,390 L 610,388 L 609,387 L 609,386 L 607,384 L 607,383 L 605,381 L 605,380 L 604,380 L 602,378 L 601,378 L 600,377 L 599,377 L 597,375 L 597,374 L 596,373 L 596,372 L 595,371 L 595,370 L 594,369 L 594,368 L 589,363 L 588,363 L 587,362 L 586,362 L 585,361 L 581,361 L 580,360 L 576,360 L 575,361 L 570,361 L 569,362 L 567,362 L 566,363 L 565,363 L 564,364 L 562,364 L 561,365 L 560,365 L 559,366 L 558,366 L 556,368 L 555,368 L 552,371 L 551,371 L 539,383 L 539,384 L 537,386 L 536,385 L 536,384 L 535,383 L 535,382 L 534,381 L 534,379 L 534,380 L 533,381 L 531,379 L 531,376 L 530,375 L 530,374 L 529,373 L 529,371 L 528,370 L 528,369 L 523,364 L 522,364 L 521,363 L 520,363 L 519,362 L 515,362 L 514,361 L 511,361 L 510,362 L 504,362 L 503,363 L 502,363 L 501,364 L 499,364 L 498,365 L 497,365 L 496,366 L 494,366 L 492,368 L 491,368 L 490,369 L 489,369 L 486,372 L 485,372 L 482,375 L 481,375 L 471,385 L 469,383 L 469,376 L 467,374 L 467,370 L 466,369 L 466,367 L 462,363 L 461,363 L 460,362 L 458,362 L 457,361 L 446,361 L 445,362 L 443,362 L 442,363 L 441,363 L 438,366 L 438,368 L 437,369 L 437,372 L 436,373 L 436,379 L 435,380 L 435,388 L 434,389 L 434,399 L 433,400 L 433,409 L 432,410 L 432,419 L 431,420 L 431,429 L 430,430 L 430,438 L 429,439 L 429,447 L 428,448 L 428,457 L 427,458 L 427,467 L 426,468 L 426,476 L 425,477 L 425,485 L 424,486 L 424,495 L 423,496 L 423,507 L 426,510 L 427,510 L 428,511 L 435,511 L 436,512 L 443,512 L 444,513 L 444,514 L 443,515 L 440,515 L 442,515 L 443,516 L 442,517 L 441,517 L 442,518 L 441,519 L 439,519 L 440,520 L 439,521 L 437,521 L 439,521 L 440,522 L 441,522 L 442,523 L 441,524 L 440,524 L 439,525 L 416,525 L 415,524 L 403,524 L 402,523 L 404,521 L 404,517 L 405,516 L 405,508 L 406,507 L 406,500 L 407,499 L 407,485 L 408,484 L 408,475 L 409,474 L 409,463 L 410,462 L 410,454 L 411,453 L 411,445 L 412,444 L 412,438 L 413,437 L 413,427 L 414,426 L 414,420 L 415,419 L 415,411 L 416,410 L 416,405 L 417,404 L 417,397 L 418,396 L 418,392 L 419,391 L 419,386 L 420,385 L 420,382 L 421,381 L 421,374 L 422,373 L 422,371 L 423,370 L 423,367 L 424,366 L 424,362 L 425,361 L 425,352 L 426,351 L 426,347 L 425,346 L 425,340 L 424,339 L 424,338 L 423,337 L 422,337 L 421,336 L 422,335 L 421,336 L 420,336 L 419,335 L 418,335 L 418,336 L 417,337 L 416,337 L 415,336 L 416,335 L 416,330 L 415,329 L 415,328 L 414,327 L 414,326 L 413,326 L 411,324 Z" fill="black"/><path d="M 386,323 L 387,323 Z" fill="black"/><path d="M 390,321 L 391,321 Z" fill="black"/><path d="M 397,318 Z" fill="black"/><path d="M 908,297 L 907,298 L 904,298 L 903,299 L 902,299 L 896,305 L 896,306 L 895,307 L 895,308 L 894,309 L 894,311 L 893,312 L 893,320 L 894,321 L 894,323 L 895,324 L 895,325 L 897,327 L 897,328 L 898,329 L 899,329 L 901,331 L 902,331 L 904,333 L 906,333 L 907,334 L 906,335 L 904,335 L 906,337 L 906,338 L 911,343 L 913,343 L 916,346 L 918,346 L 919,347 L 923,347 L 924,348 L 927,348 L 928,347 L 931,347 L 932,346 L 933,346 L 934,345 L 935,345 L 935,344 L 936,343 L 937,343 L 937,342 L 941,338 L 941,332 L 942,331 L 942,328 L 941,327 L 941,323 L 940,322 L 940,320 L 939,320 L 938,319 L 938,318 L 935,315 L 935,314 L 934,314 L 932,312 L 931,313 L 929,311 L 929,310 L 928,309 L 928,307 L 927,306 L 927,305 L 922,300 L 921,300 L 919,298 L 917,298 L 916,297 Z" fill="black"/><path d="M 446,254 L 445,255 L 442,255 L 441,256 L 439,256 L 437,258 L 436,258 L 433,261 L 432,261 L 421,272 L 420,272 L 415,277 L 414,277 L 411,280 L 410,280 L 409,281 L 408,281 L 405,284 L 404,284 L 402,286 L 401,286 L 400,287 L 399,287 L 397,289 L 396,289 L 395,290 L 394,290 L 393,291 L 392,291 L 391,292 L 390,292 L 389,293 L 388,293 L 386,295 L 384,295 L 383,296 L 382,296 L 381,297 L 380,297 L 379,298 L 378,298 L 377,299 L 375,299 L 374,300 L 372,300 L 371,301 L 370,301 L 369,302 L 368,302 L 367,303 L 366,303 L 365,304 L 363,304 L 362,305 L 360,305 L 359,306 L 358,306 L 357,307 L 355,307 L 354,308 L 352,308 L 351,309 L 349,309 L 348,310 L 346,310 L 345,311 L 344,311 L 343,312 L 341,312 L 340,313 L 338,313 L 337,314 L 336,314 L 335,315 L 333,315 L 332,316 L 331,316 L 330,317 L 329,317 L 328,318 L 326,318 L 324,320 L 322,320 L 321,321 L 320,321 L 319,322 L 318,322 L 317,323 L 316,323 L 314,325 L 313,325 L 312,326 L 311,326 L 309,328 L 308,328 L 307,329 L 306,329 L 303,332 L 302,332 L 298,336 L 297,336 L 289,344 L 289,345 L 286,348 L 286,349 L 285,350 L 285,351 L 283,353 L 283,354 L 282,355 L 282,357 L 281,358 L 281,359 L 280,360 L 280,363 L 279,364 L 279,367 L 278,368 L 278,383 L 279,384 L 279,387 L 280,388 L 280,390 L 281,391 L 281,393 L 283,395 L 283,396 L 284,397 L 284,398 L 285,399 L 285,400 L 287,402 L 287,403 L 288,403 L 289,404 L 289,405 L 288,406 L 290,408 L 290,410 L 291,411 L 292,411 L 293,412 L 293,414 L 295,414 L 297,416 L 297,417 L 302,422 L 303,422 L 304,423 L 304,424 L 305,424 L 307,426 L 309,426 L 311,428 L 313,428 L 314,429 L 316,429 L 317,430 L 318,430 L 319,431 L 326,431 L 327,432 L 334,432 L 334,431 L 335,430 L 336,431 L 337,431 L 338,430 L 339,430 L 340,429 L 341,429 L 342,428 L 343,428 L 345,426 L 345,425 L 348,422 L 348,421 L 349,420 L 349,411 L 348,410 L 348,409 L 343,404 L 343,402 L 342,401 L 342,400 L 338,396 L 337,396 L 335,394 L 325,394 L 324,393 L 322,393 L 321,392 L 319,392 L 318,391 L 317,391 L 316,390 L 315,390 L 313,388 L 313,387 L 312,386 L 313,385 L 314,385 L 313,384 L 316,381 L 316,380 L 317,379 L 317,378 L 322,373 L 322,372 L 333,361 L 333,360 L 334,359 L 336,359 L 340,355 L 341,355 L 342,354 L 343,354 L 343,353 L 344,352 L 345,352 L 346,351 L 346,350 L 347,349 L 348,349 L 349,348 L 350,348 L 351,347 L 351,346 L 352,345 L 353,345 L 354,344 L 349,344 L 348,345 L 347,345 L 346,346 L 344,346 L 343,347 L 338,347 L 337,348 L 336,348 L 335,347 L 335,346 L 334,346 L 333,345 L 332,345 L 332,346 L 331,347 L 328,347 L 327,346 L 328,345 L 329,345 L 332,342 L 333,342 L 334,341 L 335,341 L 336,342 L 335,341 L 336,340 L 337,340 L 338,339 L 339,339 L 340,338 L 341,338 L 342,337 L 343,337 L 344,336 L 346,336 L 347,335 L 348,335 L 349,334 L 351,334 L 352,333 L 353,333 L 354,332 L 356,332 L 357,331 L 358,331 L 359,330 L 361,330 L 362,329 L 364,329 L 365,328 L 366,328 L 367,327 L 370,327 L 371,326 L 372,326 L 373,325 L 375,325 L 376,324 L 378,324 L 379,323 L 381,323 L 382,322 L 383,322 L 384,321 L 386,321 L 387,320 L 388,320 L 389,319 L 390,319 L 391,318 L 393,318 L 394,317 L 395,317 L 396,316 L 397,316 L 398,315 L 399,315 L 400,314 L 401,314 L 402,313 L 404,313 L 406,315 L 405,316 L 402,316 L 400,318 L 399,317 L 400,318 L 401,317 L 403,317 L 405,319 L 408,319 L 409,320 L 412,320 L 413,321 L 414,321 L 416,319 L 421,319 L 422,318 L 425,318 L 426,317 L 429,317 L 430,316 L 434,316 L 435,315 L 436,315 L 437,314 L 438,314 L 440,312 L 442,312 L 443,311 L 444,311 L 445,310 L 446,310 L 447,309 L 448,309 L 449,308 L 450,308 L 453,305 L 454,305 L 458,301 L 460,301 L 461,300 L 461,298 L 464,295 L 464,294 L 465,293 L 465,292 L 466,291 L 466,290 L 467,289 L 467,283 L 468,282 L 468,274 L 467,273 L 467,270 L 466,269 L 466,266 L 465,265 L 465,264 L 464,263 L 464,261 L 461,258 L 461,259 L 460,260 L 459,259 L 459,258 L 459,259 L 460,260 L 460,265 L 459,266 L 458,265 L 458,262 L 457,261 L 457,260 L 453,256 L 452,256 L 451,255 L 448,255 L 447,254 Z" fill="black"/>
</svg>