<svg xmlns="http://www.w3.org/2000/svg" viewBox="0 0 1024 1024">
<path d="M 171,705 L 170,706 L 146,706 L 145,707 L 134,707 L 133,708 L 130,708 L 128,710 L 127,710 L 126,711 L 126,712 L 125,713 L 125,718 L 126,719 L 126,720 L 128,722 L 129,722 L 130,723 L 132,723 L 133,724 L 144,724 L 145,723 L 156,723 L 157,722 L 159,722 L 160,723 L 161,722 L 173,722 L 174,721 L 193,721 L 194,720 L 227,720 L 228,719 L 296,719 L 297,720 L 331,720 L 332,721 L 353,721 L 354,722 L 369,722 L 370,723 L 385,723 L 386,724 L 400,724 L 401,725 L 415,725 L 416,726 L 425,726 L 426,727 L 437,727 L 438,728 L 445,728 L 446,729 L 453,729 L 454,730 L 462,730 L 463,731 L 469,731 L 470,732 L 477,732 L 478,733 L 483,733 L 484,734 L 490,734 L 491,735 L 511,735 L 512,734 L 513,734 L 516,731 L 516,728 L 513,725 L 512,725 L 511,724 L 510,724 L 509,723 L 507,723 L 506,722 L 502,722 L 501,721 L 497,721 L 496,720 L 492,720 L 491,719 L 485,719 L 484,718 L 479,718 L 478,717 L 472,717 L 471,716 L 463,716 L 462,715 L 455,715 L 454,714 L 443,714 L 442,713 L 434,713 L 433,712 L 422,712 L 421,711 L 409,711 L 408,710 L 395,710 L 394,709 L 384,709 L 383,708 L 361,708 L 360,707 L 341,707 L 340,706 L 312,706 L 311,705 Z" fill="black"/><path d="M 912,543 L 911,544 L 906,544 L 905,545 L 901,545 L 900,546 L 899,546 L 898,547 L 896,547 L 895,548 L 893,548 L 891,550 L 890,550 L 889,551 L 888,551 L 886,553 L 885,553 L 883,555 L 882,555 L 878,559 L 877,559 L 873,563 L 873,564 L 868,569 L 868,570 L 865,573 L 865,574 L 863,576 L 863,577 L 861,579 L 861,580 L 860,581 L 860,582 L 859,583 L 859,584 L 858,585 L 858,586 L 857,587 L 857,588 L 856,589 L 856,590 L 855,591 L 855,592 L 854,593 L 854,595 L 853,596 L 853,598 L 852,599 L 852,601 L 851,602 L 851,605 L 850,606 L 850,609 L 849,610 L 849,613 L 848,614 L 848,618 L 847,619 L 848,620 L 847,621 L 847,630 L 846,631 L 846,636 L 847,637 L 847,643 L 846,644 L 846,645 L 842,649 L 842,650 L 836,656 L 835,656 L 833,658 L 832,658 L 831,659 L 826,659 L 823,656 L 823,649 L 822,648 L 822,646 L 823,645 L 823,639 L 824,638 L 824,631 L 825,630 L 825,624 L 826,623 L 826,618 L 827,617 L 827,612 L 828,611 L 828,603 L 829,602 L 829,597 L 830,596 L 830,591 L 831,590 L 831,583 L 832,582 L 832,576 L 833,575 L 833,559 L 832,558 L 832,556 L 831,555 L 831,554 L 830,553 L 830,552 L 825,547 L 824,547 L 823,546 L 821,546 L 820,545 L 818,545 L 817,544 L 805,544 L 804,545 L 802,545 L 801,546 L 799,546 L 798,547 L 797,547 L 796,548 L 795,548 L 794,549 L 793,549 L 792,550 L 791,550 L 789,552 L 788,552 L 785,555 L 784,555 L 773,566 L 773,567 L 770,570 L 770,571 L 767,574 L 767,575 L 765,577 L 765,578 L 764,579 L 763,578 L 763,576 L 764,575 L 764,572 L 765,571 L 765,565 L 766,564 L 766,559 L 767,558 L 767,550 L 766,549 L 766,548 L 765,547 L 764,547 L 763,546 L 762,546 L 761,545 L 758,545 L 757,544 L 756,545 L 755,544 L 749,544 L 748,545 L 743,545 L 742,546 L 741,546 L 738,549 L 738,552 L 737,553 L 737,559 L 736,560 L 736,566 L 735,567 L 735,573 L 734,574 L 734,580 L 733,581 L 733,589 L 732,590 L 732,596 L 731,597 L 731,603 L 730,604 L 730,610 L 729,611 L 730,612 L 729,613 L 729,619 L 728,620 L 728,626 L 727,627 L 727,634 L 726,635 L 726,640 L 725,641 L 725,644 L 723,646 L 723,647 L 718,652 L 718,653 L 716,655 L 715,655 L 711,659 L 709,659 L 708,660 L 703,660 L 700,657 L 700,643 L 701,642 L 701,636 L 702,635 L 702,627 L 703,626 L 703,620 L 704,619 L 704,614 L 705,613 L 705,606 L 706,605 L 706,599 L 707,598 L 707,593 L 708,592 L 708,587 L 709,586 L 709,579 L 710,578 L 710,573 L 711,572 L 711,567 L 712,566 L 711,565 L 712,564 L 712,559 L 713,558 L 713,553 L 714,552 L 714,551 L 713,550 L 713,549 L 710,546 L 709,546 L 708,545 L 701,545 L 700,544 L 692,544 L 691,545 L 688,545 L 687,546 L 686,546 L 684,548 L 684,551 L 683,552 L 683,556 L 682,557 L 682,562 L 681,563 L 681,570 L 680,571 L 680,576 L 679,577 L 679,583 L 678,584 L 678,589 L 677,590 L 677,595 L 676,596 L 676,602 L 675,603 L 675,610 L 674,611 L 674,617 L 673,618 L 673,624 L 672,625 L 672,631 L 671,632 L 671,639 L 670,640 L 670,647 L 669,648 L 669,654 L 667,656 L 666,656 L 665,657 L 664,657 L 663,658 L 662,658 L 661,659 L 660,659 L 659,660 L 658,660 L 657,661 L 656,661 L 655,662 L 654,662 L 652,664 L 650,664 L 649,665 L 648,665 L 646,667 L 645,666 L 645,665 L 646,664 L 646,656 L 647,655 L 647,646 L 648,645 L 648,639 L 649,638 L 649,634 L 650,633 L 650,629 L 651,628 L 651,621 L 652,620 L 652,615 L 653,614 L 653,609 L 654,608 L 654,602 L 655,601 L 655,596 L 656,595 L 656,588 L 657,587 L 657,581 L 658,580 L 658,575 L 659,574 L 659,568 L 660,567 L 660,562 L 661,561 L 661,555 L 662,554 L 662,552 L 661,551 L 661,550 L 659,548 L 658,548 L 657,547 L 643,547 L 642,548 L 640,548 L 639,549 L 638,549 L 637,550 L 637,551 L 636,552 L 636,553 L 635,554 L 634,554 L 632,552 L 632,551 L 629,548 L 628,548 L 626,546 L 625,546 L 624,545 L 622,545 L 621,544 L 606,544 L 605,545 L 602,545 L 601,546 L 599,546 L 598,547 L 596,547 L 595,548 L 594,548 L 593,549 L 592,549 L 590,551 L 589,551 L 588,552 L 587,552 L 585,554 L 584,554 L 581,557 L 580,557 L 570,567 L 570,568 L 565,573 L 565,574 L 563,576 L 563,577 L 561,579 L 561,580 L 559,582 L 559,583 L 558,584 L 558,585 L 557,586 L 557,587 L 556,588 L 556,589 L 555,590 L 555,591 L 554,592 L 554,593 L 553,594 L 553,595 L 552,596 L 552,597 L 551,598 L 551,600 L 550,601 L 550,603 L 549,604 L 549,605 L 548,606 L 548,608 L 547,609 L 547,613 L 546,614 L 546,616 L 545,617 L 545,622 L 544,623 L 544,629 L 543,630 L 543,648 L 534,657 L 533,657 L 532,658 L 531,658 L 530,659 L 529,659 L 528,660 L 521,660 L 518,657 L 518,653 L 517,652 L 518,651 L 517,650 L 517,647 L 518,646 L 518,638 L 519,637 L 519,631 L 520,630 L 520,626 L 521,625 L 521,620 L 522,619 L 522,614 L 523,613 L 523,609 L 524,608 L 524,604 L 525,603 L 525,599 L 526,598 L 526,594 L 527,593 L 527,590 L 528,589 L 528,586 L 529,585 L 529,581 L 530,580 L 530,577 L 531,576 L 531,573 L 532,572 L 532,569 L 533,568 L 533,565 L 534,564 L 534,562 L 535,561 L 535,559 L 536,558 L 536,555 L 537,554 L 537,550 L 535,548 L 533,548 L 532,547 L 528,547 L 527,546 L 518,546 L 517,547 L 514,547 L 513,548 L 512,548 L 507,553 L 507,555 L 506,556 L 504,554 L 504,553 L 498,547 L 497,547 L 496,546 L 495,546 L 494,545 L 493,545 L 492,544 L 473,544 L 472,545 L 469,545 L 468,546 L 467,546 L 466,547 L 464,547 L 463,548 L 462,548 L 461,549 L 460,549 L 458,551 L 457,551 L 455,553 L 454,553 L 452,555 L 451,555 L 439,567 L 439,568 L 436,571 L 436,572 L 434,574 L 434,575 L 432,577 L 432,578 L 430,580 L 430,581 L 428,583 L 428,584 L 427,585 L 427,586 L 426,587 L 426,588 L 425,589 L 425,590 L 424,591 L 424,592 L 423,593 L 423,594 L 422,595 L 422,597 L 421,598 L 421,599 L 420,600 L 420,602 L 419,603 L 419,605 L 418,606 L 418,608 L 417,609 L 417,611 L 416,612 L 416,615 L 415,616 L 415,620 L 414,621 L 414,627 L 413,628 L 413,635 L 412,636 L 412,642 L 413,643 L 413,646 L 410,649 L 410,650 L 402,658 L 401,658 L 400,659 L 399,659 L 398,660 L 394,660 L 391,657 L 391,654 L 390,653 L 391,652 L 391,640 L 392,639 L 392,631 L 393,630 L 393,624 L 394,623 L 394,617 L 395,616 L 395,611 L 396,610 L 396,605 L 397,604 L 397,597 L 398,596 L 398,592 L 399,591 L 399,586 L 400,585 L 400,579 L 401,578 L 401,571 L 402,570 L 402,563 L 401,562 L 401,559 L 400,558 L 400,556 L 399,555 L 399,554 L 398,553 L 398,552 L 394,548 L 393,548 L 391,546 L 389,546 L 388,545 L 386,545 L 385,544 L 371,544 L 370,545 L 368,545 L 367,546 L 365,546 L 364,547 L 363,547 L 362,548 L 360,548 L 358,550 L 357,550 L 356,551 L 355,551 L 353,553 L 352,553 L 348,557 L 347,557 L 339,565 L 339,566 L 335,570 L 335,571 L 333,573 L 333,574 L 331,576 L 331,577 L 330,578 L 329,577 L 329,575 L 330,574 L 330,560 L 329,559 L 329,556 L 328,555 L 328,554 L 326,552 L 326,551 L 323,548 L 322,548 L 321,547 L 320,547 L 319,546 L 318,546 L 317,545 L 315,545 L 314,544 L 300,544 L 299,545 L 297,545 L 296,546 L 294,546 L 293,547 L 292,547 L 291,548 L 290,548 L 289,549 L 288,549 L 287,550 L 286,550 L 284,552 L 283,552 L 281,554 L 280,554 L 272,562 L 271,562 L 271,563 L 266,568 L 266,569 L 264,571 L 264,572 L 262,574 L 262,575 L 260,577 L 260,578 L 259,579 L 259,580 L 258,581 L 257,580 L 257,578 L 258,577 L 258,572 L 259,571 L 259,566 L 260,565 L 260,561 L 261,560 L 261,552 L 260,551 L 260,550 L 257,547 L 255,547 L 254,546 L 253,546 L 252,545 L 247,545 L 246,544 L 237,544 L 236,545 L 235,545 L 233,547 L 233,548 L 232,549 L 232,552 L 231,553 L 231,557 L 230,558 L 230,565 L 229,566 L 229,572 L 228,573 L 228,579 L 227,580 L 227,586 L 226,587 L 226,594 L 225,595 L 225,602 L 224,603 L 224,608 L 223,609 L 223,615 L 222,616 L 222,623 L 221,624 L 221,630 L 220,631 L 220,638 L 219,639 L 219,643 L 218,644 L 218,652 L 217,653 L 217,658 L 216,659 L 216,664 L 215,665 L 215,673 L 214,674 L 214,680 L 216,682 L 218,682 L 219,683 L 225,683 L 226,684 L 240,684 L 241,683 L 244,683 L 246,681 L 246,680 L 247,679 L 247,675 L 248,674 L 248,669 L 249,668 L 249,662 L 250,661 L 249,660 L 250,659 L 250,654 L 251,653 L 251,647 L 252,646 L 252,640 L 253,639 L 253,633 L 254,632 L 254,627 L 255,626 L 255,621 L 256,620 L 256,617 L 257,616 L 257,613 L 258,612 L 258,610 L 259,609 L 259,607 L 260,606 L 260,604 L 261,603 L 261,602 L 262,601 L 262,599 L 263,598 L 263,597 L 264,596 L 264,595 L 265,594 L 265,593 L 267,591 L 267,590 L 268,589 L 268,588 L 270,586 L 270,585 L 275,580 L 275,579 L 276,578 L 277,578 L 282,573 L 283,573 L 284,572 L 285,572 L 286,571 L 287,571 L 288,570 L 294,570 L 295,571 L 296,571 L 297,572 L 297,573 L 298,574 L 298,587 L 297,588 L 297,595 L 296,596 L 296,601 L 295,602 L 295,607 L 294,608 L 294,614 L 293,615 L 293,620 L 292,621 L 292,626 L 291,627 L 291,631 L 290,632 L 291,633 L 290,634 L 290,638 L 289,639 L 289,644 L 288,645 L 288,650 L 287,651 L 287,658 L 286,659 L 286,664 L 285,665 L 285,671 L 284,672 L 284,676 L 285,677 L 285,678 L 287,680 L 288,680 L 289,681 L 291,681 L 292,682 L 297,682 L 298,683 L 308,683 L 309,682 L 312,682 L 313,681 L 314,681 L 316,679 L 316,677 L 317,676 L 317,672 L 318,671 L 318,665 L 319,664 L 319,658 L 320,657 L 320,652 L 321,651 L 321,646 L 322,645 L 322,639 L 323,638 L 323,633 L 324,632 L 324,627 L 325,626 L 325,621 L 326,620 L 326,617 L 327,616 L 327,613 L 328,612 L 328,610 L 329,609 L 329,607 L 330,606 L 330,605 L 331,604 L 331,602 L 332,601 L 332,600 L 333,599 L 333,598 L 334,597 L 334,596 L 335,595 L 335,594 L 336,593 L 336,592 L 338,590 L 338,589 L 340,587 L 340,586 L 342,584 L 342,583 L 351,574 L 352,574 L 354,572 L 355,572 L 356,571 L 357,571 L 358,570 L 364,570 L 367,573 L 367,574 L 368,575 L 368,584 L 367,585 L 367,590 L 366,591 L 366,598 L 365,599 L 365,604 L 364,605 L 364,611 L 363,612 L 363,619 L 362,620 L 362,626 L 361,627 L 361,632 L 360,633 L 360,642 L 359,643 L 359,649 L 358,650 L 358,668 L 359,669 L 359,672 L 360,673 L 360,674 L 362,676 L 362,677 L 365,680 L 366,680 L 368,682 L 369,682 L 370,683 L 372,683 L 373,684 L 384,684 L 385,683 L 388,683 L 389,682 L 391,682 L 392,681 L 393,681 L 394,680 L 395,680 L 396,679 L 397,679 L 399,677 L 400,677 L 401,676 L 402,676 L 405,673 L 406,673 L 415,664 L 417,666 L 417,668 L 418,669 L 418,670 L 419,671 L 419,672 L 420,673 L 420,674 L 427,681 L 428,681 L 429,682 L 430,682 L 431,683 L 432,683 L 433,684 L 436,684 L 437,685 L 449,685 L 450,684 L 454,684 L 455,683 L 457,683 L 458,682 L 460,682 L 461,681 L 462,681 L 463,680 L 464,680 L 465,679 L 466,679 L 467,678 L 468,678 L 471,675 L 472,675 L 482,665 L 482,664 L 484,662 L 484,661 L 486,659 L 486,658 L 487,657 L 488,658 L 488,669 L 489,670 L 489,673 L 490,674 L 490,676 L 496,682 L 497,682 L 498,683 L 503,683 L 504,684 L 508,684 L 509,683 L 514,683 L 515,682 L 517,682 L 518,681 L 520,681 L 521,680 L 522,680 L 523,679 L 524,679 L 525,678 L 526,678 L 527,677 L 528,677 L 529,676 L 530,676 L 531,675 L 532,675 L 534,673 L 535,673 L 537,671 L 538,671 L 545,664 L 546,664 L 547,665 L 547,666 L 548,667 L 548,669 L 550,671 L 550,672 L 551,673 L 551,674 L 558,681 L 559,681 L 560,682 L 561,682 L 562,683 L 563,683 L 564,684 L 568,684 L 569,685 L 581,685 L 582,684 L 585,684 L 586,683 L 588,683 L 589,682 L 591,682 L 592,681 L 593,681 L 594,680 L 595,680 L 597,678 L 598,678 L 599,677 L 600,677 L 603,674 L 604,674 L 610,668 L 610,667 L 613,664 L 613,663 L 615,661 L 615,660 L 616,659 L 617,659 L 618,660 L 617,661 L 617,665 L 616,666 L 617,667 L 616,668 L 616,673 L 615,674 L 615,680 L 614,681 L 614,683 L 613,684 L 612,684 L 611,685 L 610,685 L 609,686 L 608,686 L 607,687 L 606,687 L 604,689 L 603,689 L 602,690 L 601,690 L 600,691 L 599,691 L 598,692 L 597,692 L 596,693 L 595,693 L 594,694 L 593,694 L 592,695 L 591,695 L 590,696 L 589,696 L 587,698 L 586,698 L 585,699 L 584,699 L 583,700 L 582,700 L 580,702 L 579,702 L 578,703 L 577,703 L 575,705 L 574,705 L 572,707 L 571,707 L 569,709 L 568,709 L 566,711 L 565,711 L 562,714 L 561,714 L 558,717 L 557,717 L 545,729 L 545,730 L 542,733 L 542,734 L 540,736 L 540,737 L 539,738 L 539,739 L 538,740 L 538,741 L 537,742 L 537,743 L 536,744 L 536,745 L 535,746 L 535,747 L 534,748 L 534,750 L 533,751 L 533,754 L 532,755 L 532,760 L 531,761 L 531,769 L 532,770 L 532,776 L 533,777 L 533,779 L 534,780 L 534,782 L 535,783 L 535,784 L 536,785 L 536,786 L 538,788 L 538,789 L 543,794 L 544,794 L 546,796 L 547,796 L 548,797 L 549,797 L 550,798 L 551,798 L 552,799 L 554,799 L 555,800 L 558,800 L 559,801 L 577,801 L 578,800 L 582,800 L 583,799 L 585,799 L 586,798 L 588,798 L 589,797 L 590,797 L 591,796 L 592,796 L 593,795 L 594,795 L 595,794 L 596,794 L 599,791 L 600,791 L 604,787 L 605,787 L 608,784 L 608,783 L 613,778 L 613,777 L 616,774 L 616,773 L 618,771 L 618,770 L 620,768 L 620,767 L 621,766 L 621,765 L 622,764 L 622,763 L 623,762 L 623,761 L 624,760 L 624,759 L 625,758 L 625,757 L 626,756 L 626,755 L 627,754 L 627,752 L 628,751 L 628,750 L 629,749 L 629,747 L 630,746 L 630,744 L 631,743 L 631,740 L 632,739 L 632,737 L 633,736 L 633,733 L 634,732 L 634,729 L 635,728 L 635,725 L 636,724 L 636,721 L 637,720 L 637,716 L 638,715 L 638,712 L 639,711 L 639,707 L 640,706 L 639,705 L 640,704 L 640,700 L 641,699 L 641,695 L 642,694 L 642,689 L 643,688 L 643,686 L 645,684 L 646,684 L 647,683 L 648,683 L 649,682 L 650,682 L 652,680 L 653,680 L 654,679 L 655,679 L 656,678 L 657,678 L 658,677 L 659,677 L 661,675 L 662,675 L 663,674 L 664,674 L 666,672 L 667,672 L 669,670 L 670,671 L 670,672 L 671,673 L 671,675 L 672,676 L 672,677 L 678,683 L 680,683 L 681,684 L 684,684 L 685,685 L 690,685 L 691,684 L 695,684 L 696,683 L 698,683 L 699,682 L 701,682 L 702,681 L 703,681 L 704,680 L 705,680 L 707,678 L 708,678 L 710,676 L 711,676 L 714,673 L 715,673 L 720,668 L 720,667 L 722,665 L 723,666 L 723,668 L 722,669 L 722,673 L 723,674 L 723,676 L 724,677 L 724,678 L 725,679 L 726,679 L 727,680 L 728,680 L 729,681 L 732,681 L 733,682 L 735,682 L 736,681 L 747,681 L 751,677 L 751,672 L 752,671 L 752,666 L 753,665 L 753,659 L 754,658 L 754,653 L 755,652 L 755,647 L 756,646 L 756,641 L 757,640 L 757,634 L 758,633 L 758,629 L 759,628 L 759,623 L 760,622 L 760,618 L 761,617 L 761,614 L 762,613 L 762,610 L 763,609 L 763,607 L 764,606 L 764,605 L 765,604 L 765,602 L 766,601 L 766,599 L 767,598 L 767,597 L 768,596 L 768,595 L 770,593 L 770,592 L 771,591 L 771,590 L 773,588 L 773,587 L 775,585 L 775,584 L 780,579 L 780,578 L 782,576 L 783,576 L 786,573 L 787,573 L 789,571 L 791,571 L 792,570 L 797,570 L 798,571 L 799,571 L 800,572 L 800,573 L 801,574 L 801,577 L 802,578 L 802,579 L 801,580 L 801,587 L 800,588 L 800,593 L 799,594 L 799,599 L 798,600 L 799,601 L 798,602 L 798,607 L 797,608 L 797,613 L 796,614 L 796,619 L 795,620 L 795,626 L 794,627 L 794,633 L 793,634 L 793,638 L 792,639 L 792,646 L 791,647 L 791,654 L 790,655 L 790,660 L 791,661 L 791,669 L 792,670 L 792,672 L 793,673 L 793,674 L 800,681 L 802,681 L 803,682 L 805,682 L 806,683 L 815,683 L 816,682 L 819,682 L 820,681 L 822,681 L 823,680 L 824,680 L 825,679 L 826,679 L 827,678 L 828,678 L 829,677 L 830,677 L 832,675 L 833,675 L 836,672 L 837,672 L 848,661 L 848,660 L 849,659 L 851,661 L 851,663 L 852,664 L 852,665 L 853,666 L 853,667 L 856,670 L 856,671 L 861,676 L 862,676 L 865,679 L 866,679 L 867,680 L 868,680 L 869,681 L 870,681 L 871,682 L 873,682 L 874,683 L 877,683 L 878,684 L 881,684 L 882,685 L 897,685 L 898,684 L 902,684 L 903,683 L 906,683 L 907,682 L 909,682 L 910,681 L 912,681 L 913,680 L 914,680 L 915,679 L 916,679 L 917,678 L 919,678 L 920,677 L 921,677 L 923,675 L 924,675 L 925,674 L 926,674 L 928,672 L 929,672 L 931,670 L 932,670 L 936,666 L 937,666 L 946,657 L 946,656 L 950,652 L 950,651 L 952,649 L 952,648 L 954,646 L 954,645 L 955,644 L 955,643 L 957,641 L 957,640 L 958,639 L 958,638 L 959,637 L 959,635 L 960,634 L 960,633 L 961,632 L 961,630 L 962,629 L 962,627 L 963,626 L 963,624 L 964,623 L 964,618 L 963,617 L 963,616 L 960,613 L 956,613 L 955,614 L 955,615 L 954,616 L 954,617 L 953,618 L 953,620 L 952,621 L 952,622 L 951,623 L 951,624 L 950,625 L 950,626 L 949,627 L 949,628 L 948,629 L 948,630 L 946,632 L 946,633 L 943,636 L 943,637 L 940,640 L 940,641 L 930,651 L 929,651 L 926,654 L 925,654 L 923,656 L 922,656 L 921,657 L 920,657 L 918,659 L 917,659 L 916,660 L 915,660 L 914,661 L 912,661 L 911,662 L 908,662 L 907,663 L 904,663 L 903,664 L 896,664 L 895,663 L 893,663 L 892,662 L 890,662 L 889,661 L 888,661 L 881,654 L 881,653 L 880,652 L 880,651 L 879,650 L 879,648 L 878,647 L 878,643 L 877,642 L 878,641 L 877,640 L 877,631 L 878,630 L 884,630 L 885,629 L 889,629 L 890,628 L 892,628 L 893,627 L 896,627 L 897,626 L 898,626 L 899,625 L 901,625 L 902,624 L 903,624 L 904,623 L 906,623 L 907,622 L 908,622 L 909,621 L 910,621 L 911,620 L 912,620 L 914,618 L 915,618 L 916,617 L 917,617 L 919,615 L 920,615 L 923,612 L 924,612 L 935,601 L 935,600 L 937,598 L 937,597 L 939,595 L 939,594 L 940,593 L 940,592 L 941,591 L 941,590 L 942,589 L 942,587 L 943,586 L 943,584 L 944,583 L 944,581 L 945,580 L 945,575 L 946,574 L 946,568 L 945,567 L 945,564 L 944,563 L 944,561 L 943,560 L 943,558 L 941,556 L 941,555 L 935,549 L 934,549 L 932,547 L 931,547 L 930,546 L 928,546 L 927,545 L 925,545 L 924,544 L 920,544 L 919,543 Z" fill="black"/><path d="M 701,478 L 700,479 L 698,479 L 697,480 L 695,480 L 694,481 L 693,481 L 687,487 L 687,488 L 686,489 L 686,491 L 685,492 L 685,502 L 686,503 L 686,504 L 688,506 L 688,507 L 691,510 L 692,510 L 693,511 L 694,511 L 695,512 L 697,512 L 698,513 L 708,513 L 709,512 L 711,512 L 712,511 L 713,511 L 714,510 L 715,510 L 717,508 L 718,508 L 718,507 L 721,504 L 721,503 L 722,502 L 722,500 L 723,499 L 723,492 L 722,491 L 722,489 L 721,488 L 721,487 L 719,485 L 719,484 L 718,484 L 715,481 L 714,481 L 713,480 L 712,480 L 711,479 L 708,479 L 707,478 Z" fill="black"/><path d="M 246,443 L 245,444 L 243,444 L 241,446 L 240,446 L 238,448 L 238,449 L 236,451 L 236,452 L 232,456 L 232,457 L 222,467 L 221,467 L 218,470 L 217,470 L 215,472 L 214,472 L 212,474 L 211,474 L 209,476 L 208,476 L 207,477 L 206,477 L 205,478 L 204,478 L 202,480 L 201,480 L 200,481 L 199,481 L 198,482 L 197,482 L 196,483 L 195,483 L 194,484 L 193,484 L 192,485 L 191,485 L 190,486 L 188,486 L 187,487 L 186,487 L 185,488 L 184,488 L 183,489 L 181,489 L 180,490 L 179,490 L 178,491 L 176,491 L 175,492 L 174,492 L 173,493 L 171,493 L 170,494 L 168,494 L 167,495 L 165,495 L 164,496 L 162,496 L 161,497 L 159,497 L 158,498 L 156,498 L 155,499 L 153,499 L 152,500 L 150,500 L 149,501 L 147,501 L 146,502 L 144,502 L 143,503 L 140,503 L 139,504 L 138,504 L 137,505 L 134,505 L 133,506 L 131,506 L 130,507 L 129,507 L 128,508 L 126,508 L 125,509 L 123,509 L 122,510 L 121,510 L 120,511 L 118,511 L 117,512 L 116,512 L 115,513 L 114,513 L 113,514 L 112,514 L 111,515 L 110,515 L 109,516 L 108,516 L 107,517 L 106,517 L 105,518 L 104,518 L 103,519 L 102,519 L 100,521 L 99,521 L 97,523 L 96,523 L 93,526 L 92,526 L 83,535 L 83,536 L 81,538 L 81,539 L 79,541 L 79,542 L 78,543 L 78,544 L 77,545 L 77,546 L 76,547 L 76,549 L 75,550 L 75,552 L 74,553 L 74,556 L 73,557 L 73,575 L 74,576 L 74,579 L 75,580 L 75,582 L 76,583 L 76,585 L 77,586 L 77,587 L 78,588 L 78,589 L 79,590 L 79,591 L 82,594 L 82,595 L 90,603 L 91,603 L 94,606 L 95,606 L 96,607 L 97,607 L 98,608 L 99,608 L 100,609 L 102,609 L 103,610 L 105,610 L 106,611 L 112,611 L 113,612 L 119,612 L 120,611 L 124,611 L 125,610 L 127,610 L 129,608 L 130,608 L 131,607 L 132,607 L 135,604 L 135,603 L 137,601 L 137,600 L 138,599 L 138,598 L 139,597 L 139,595 L 140,594 L 140,592 L 139,591 L 139,590 L 137,588 L 129,588 L 128,587 L 125,587 L 124,586 L 123,586 L 122,585 L 121,585 L 120,584 L 119,584 L 117,582 L 116,582 L 111,577 L 111,576 L 109,574 L 109,573 L 108,572 L 108,570 L 107,569 L 107,557 L 108,556 L 108,554 L 109,553 L 109,552 L 110,551 L 110,550 L 114,546 L 114,545 L 115,544 L 116,544 L 120,540 L 121,540 L 124,537 L 125,537 L 126,536 L 127,536 L 128,535 L 129,535 L 131,533 L 133,533 L 134,532 L 135,532 L 136,531 L 137,531 L 138,530 L 139,530 L 140,529 L 142,529 L 143,528 L 144,528 L 145,527 L 147,527 L 148,526 L 150,526 L 151,525 L 153,525 L 154,524 L 155,524 L 156,523 L 159,523 L 160,522 L 162,522 L 163,521 L 165,521 L 166,520 L 168,520 L 169,519 L 172,519 L 173,518 L 174,518 L 175,519 L 175,521 L 174,522 L 174,528 L 173,529 L 173,535 L 172,536 L 172,542 L 171,543 L 171,550 L 170,551 L 171,552 L 171,553 L 170,554 L 170,560 L 169,561 L 169,568 L 168,569 L 168,575 L 167,576 L 167,585 L 166,586 L 166,592 L 165,593 L 165,600 L 164,601 L 164,608 L 163,609 L 163,615 L 162,616 L 162,624 L 161,625 L 161,633 L 160,634 L 160,641 L 159,642 L 159,648 L 158,649 L 158,657 L 157,658 L 157,664 L 156,665 L 156,674 L 155,675 L 155,684 L 158,687 L 184,687 L 185,686 L 187,686 L 189,684 L 189,682 L 190,681 L 190,674 L 191,673 L 191,666 L 192,665 L 192,655 L 193,654 L 193,645 L 194,644 L 193,643 L 194,642 L 194,634 L 195,633 L 195,625 L 196,624 L 196,617 L 197,616 L 197,615 L 196,614 L 197,613 L 197,605 L 198,604 L 198,596 L 199,595 L 199,585 L 200,584 L 200,577 L 201,576 L 201,565 L 202,564 L 202,556 L 203,555 L 203,547 L 204,546 L 204,535 L 205,534 L 205,527 L 206,526 L 206,515 L 207,514 L 207,508 L 208,507 L 209,507 L 210,506 L 212,506 L 213,505 L 214,505 L 215,504 L 216,504 L 217,503 L 218,503 L 219,502 L 220,502 L 221,501 L 222,501 L 223,500 L 224,500 L 225,499 L 226,499 L 227,498 L 228,498 L 229,497 L 230,497 L 231,496 L 232,496 L 234,494 L 235,494 L 236,493 L 237,493 L 239,491 L 240,491 L 242,489 L 243,489 L 245,487 L 246,487 L 249,484 L 250,484 L 257,477 L 257,476 L 259,474 L 259,473 L 261,471 L 261,469 L 262,468 L 262,466 L 263,465 L 263,455 L 262,454 L 262,452 L 261,451 L 261,450 L 256,445 L 255,445 L 254,444 L 252,444 L 251,443 Z" fill="black"/><path d="M 131,221 L 130,222 L 126,222 L 125,223 L 122,223 L 121,224 L 119,224 L 118,225 L 117,225 L 116,226 L 115,226 L 114,227 L 113,227 L 110,230 L 109,230 L 103,236 L 103,237 L 101,239 L 101,240 L 100,241 L 100,242 L 99,243 L 99,244 L 98,245 L 98,246 L 97,247 L 97,249 L 96,250 L 96,252 L 95,253 L 95,446 L 96,447 L 96,450 L 97,451 L 97,454 L 98,455 L 98,456 L 99,457 L 99,459 L 101,461 L 101,462 L 102,463 L 102,464 L 103,465 L 103,466 L 112,475 L 113,475 L 114,476 L 115,476 L 116,477 L 117,477 L 118,478 L 120,478 L 121,479 L 148,479 L 149,478 L 152,478 L 153,477 L 157,477 L 158,476 L 162,476 L 163,475 L 166,475 L 167,474 L 169,474 L 170,473 L 173,473 L 174,472 L 176,472 L 177,471 L 179,471 L 180,470 L 182,470 L 183,469 L 185,469 L 186,468 L 188,468 L 189,467 L 190,467 L 190,466 L 138,466 L 137,465 L 133,465 L 132,464 L 129,464 L 128,463 L 126,463 L 125,462 L 124,462 L 122,460 L 121,460 L 117,456 L 117,455 L 115,453 L 115,452 L 114,451 L 114,450 L 113,449 L 113,447 L 112,446 L 112,441 L 111,440 L 111,417 L 124,404 L 124,403 L 130,397 L 130,396 L 137,389 L 137,388 L 144,381 L 144,380 L 149,375 L 149,374 L 155,368 L 155,367 L 161,361 L 161,360 L 168,353 L 168,352 L 174,346 L 174,345 L 189,330 L 190,330 L 191,329 L 192,329 L 206,343 L 206,344 L 215,353 L 215,354 L 224,363 L 224,364 L 232,372 L 232,373 L 240,381 L 240,382 L 246,388 L 247,388 L 249,390 L 250,390 L 251,391 L 252,391 L 253,392 L 255,392 L 256,393 L 258,393 L 259,392 L 260,392 L 261,391 L 262,391 L 263,390 L 264,390 L 265,389 L 266,389 L 268,387 L 269,387 L 270,386 L 271,386 L 272,385 L 274,385 L 275,384 L 276,384 L 277,383 L 282,383 L 283,382 L 284,383 L 285,383 L 286,384 L 287,384 L 289,386 L 289,387 L 298,396 L 298,397 L 309,408 L 309,409 L 319,419 L 319,420 L 336,437 L 336,442 L 335,443 L 335,446 L 334,447 L 334,448 L 333,449 L 333,450 L 332,451 L 332,452 L 330,454 L 330,455 L 327,458 L 326,458 L 323,461 L 322,461 L 321,462 L 320,462 L 319,463 L 317,463 L 316,464 L 313,464 L 312,465 L 305,465 L 304,466 L 282,466 L 282,471 L 281,472 L 281,475 L 280,476 L 280,477 L 285,477 L 286,478 L 294,478 L 295,479 L 324,479 L 325,478 L 329,478 L 330,477 L 331,477 L 332,476 L 333,476 L 334,475 L 335,475 L 344,466 L 344,465 L 346,463 L 346,462 L 347,461 L 347,460 L 348,459 L 348,458 L 349,457 L 349,455 L 350,454 L 350,453 L 351,452 L 351,449 L 352,448 L 352,443 L 353,442 L 353,256 L 352,255 L 352,251 L 351,250 L 351,248 L 350,247 L 350,245 L 349,244 L 349,243 L 348,242 L 348,241 L 347,240 L 347,239 L 345,237 L 345,236 L 337,228 L 336,228 L 335,227 L 334,227 L 332,225 L 330,225 L 329,224 L 328,224 L 327,223 L 324,223 L 323,222 L 319,222 L 318,221 Z" fill="black"/>
</svg>